{"title":"Australian Survivor - S03E11","uid":15858465,"size":488492551,"categoryP":"video","categoryS":"tv_shows","magnet":"?xt=urn:btih:5eb82f83a7a29ef47b6a98a97c52de34d5696070&amp;dn=Australian+Survivor+-+S03E11&amp;tr=udp%3A%2F%2Ftracker.leechers-paradise.org%3A6969&amp;tr=udp%3A%2F%2Fzer0day.ch%3A1337&amp;tr=udp%3A%2F%2Fopen.demonii.com%3A1337&amp;tr=udp%3A%2F%2Ftracker.coppersurfer.tk%3A6969&amp;tr=udp%3A%2F%2Fexodus.desync.com%3A6969","seeders":13,"leechers":5,"uploader":"Bullrout","files":1,"time":1474270036,"description":"Australian Survivor - S03E11\r\n\r\nAfter receiving a vote at tribal council, one tribe member is shocked after surviving the vote. They are hurt and angry, but do they have the numbers to seek revenge?\r\n\r\nComplete name : Australian Survivor - S03E11.mp4\r\nFormat : MPEG-4\r\nFormat profile : Base Media / Version 2\r\nCodec ID : mp42 (mp42/isom/avc1)\r\nFile size : 466 MiB\r\nDuration : 58 min 12 s\r\nOverall bit rate mode : Variable\r\nOverall bit rate : 1 119 kb/s\r\n\r\nVideo\r\nID : 2\r\nFormat : AVC\r\nFormat/Info : Advanced Video Codec\r\nFormat profile :   \r\nFormat settings, CABAC : Yes\r\nFormat settings, ReFrames : 3 frames\r\nCodec ID : avc1\r\nCodec ID/Info : Advanced Video Coding\r\nDuration : 58 min 12 s\r\nBit rate mode : Variable\r\nBit rate : 987 kb/s\r\nMaximum bit rate : 1 000 kb/s\r\nWidth : 720 pixels\r\nHeight : 404 pixels\r\nDisplay aspect ratio : 16:9\r\nOriginal display aspect ratio : 16:9\r\nFrame rate mode : Constant\r\nFrame rate : 25.000 FPS\r\nStandard : PAL\r\nColor space : YUV\r\nChroma subsampling : 4:2:0\r\nBit depth : 8 bits\r\nScan type : Progressive\r\nBits/(Pixel*Frame) : 0.136\r\nStream size : 411 MiB (88%)\r\nWriting library : x264 core 112\r\nColor range : Limited\r\nColor primaries : BT.601 PAL\r\nTransfer characteristics : BT.470 System B, BT.470 System G\r\nMatrix coefficients : BT.601\r\n\r\nAudio\r\nID : 1\r\nFormat : AAC\r\nFormat/Info : Advanced Audio Codec\r\nFormat profile : LC\r\nCodec ID : 40\r\nDuration : 58 min 12 s\r\nBit rate mode : Variable\r\nBit rate : 128 kb/s\r\nMaximum bit rate : 576 kb/s\r\nChannel(s) : 2 channels\r\nChannel positions : Front: L R\r\nSampling rate : 48.0 kHz\r\nFrame rate : 46.875 FPS (1024 spf)\r\nCompression mode : Lossy\r\nStream size : 53.3 MiB (11%)","torrent":{"xt":"urn:btih:5eb82f83a7a29ef47b6a98a97c52de34d5696070","amp;dn":"Australian+Survivor+-+S03E11","amp;tr":["udp%3A%2F%2Ftracker.leechers-paradise.org%3A6969","udp%3A%2F%2Fzer0day.ch%3A1337","udp%3A%2F%2Fopen.demonii.com%3A1337","udp%3A%2F%2Ftracker.coppersurfer.tk%3A6969","udp%3A%2F%2Fexodus.desync.com%3A6969"],"infoHash":"5eb82f83a7a29ef47b6a98a97c52de34d5696070","infoHashBuffer":{"type":"Buffer","data":[94,184,47,131,167,162,158,244,123,106,152,169,124,82,222,52,213,105,96,112]},"announce":[],"urlList":[]}}